<mxfile host="app.diagrams.net" modified="2021-02-05T04:02:09.989Z" agent="5.0 (Windows NT 10.0; WOW64) AppleWebKit/537.36 (KHTML, like Gecko) Chrome/65.0.3325.181 Safari/537.36" etag="pJOK_tkLtYZeyvu-cE1j" version="14.2.9" type="github">
  <diagram id="tSahE8HauLd_56ZxBlCN" name="Page-1">
    <mxGraphModel dx="2075" dy="1857" grid="1" gridSize="10" guides="1" tooltips="1" connect="1" arrows="1" fold="1" page="1" pageScale="1" pageWidth="827" pageHeight="1169" math="0" shadow="0">
      <root>
        <mxCell id="0" />
        <mxCell id="1" parent="0" />
        <mxCell id="pSXNC7oPqVaKM3YzNo9T-8" value="" style="group" vertex="1" connectable="0" parent="1">
          <mxGeometry x="-190" y="-870" width="920" height="448" as="geometry" />
        </mxCell>
        <mxCell id="pSXNC7oPqVaKM3YzNo9T-1" value="FSS场地容器部署" style="fillColor=none;strokeColor=#147EBA;dashed=1;verticalAlign=top;fontStyle=0;fontColor=#147EBA;" vertex="1" parent="pSXNC7oPqVaKM3YzNo9T-8">
          <mxGeometry x="20" width="900" height="430" as="geometry" />
        </mxCell>
        <mxCell id="pSXNC7oPqVaKM3YzNo9T-6" value="" style="html=1;dashed=0;whitespace=wrap;fillColor=#2875E2;strokeColor=#ffffff;points=[[0.005,0.63,0],[0.1,0.2,0],[0.9,0.2,0],[0.5,0,0],[0.995,0.63,0],[0.72,0.99,0],[0.5,1,0],[0.28,0.99,0]];shape=mxgraph.kubernetes.icon;prIcon=ns" vertex="1" parent="pSXNC7oPqVaKM3YzNo9T-8">
          <mxGeometry y="400" width="50" height="48" as="geometry" />
        </mxCell>
        <mxCell id="pSXNC7oPqVaKM3YzNo9T-5" value="消息上报服务&lt;br&gt;alter" style="html=1;dashed=0;whitespace=wrap;fillColor=#2875E2;strokeColor=#ffffff;points=[[0.005,0.63,0],[0.1,0.2,0],[0.9,0.2,0],[0.5,0,0],[0.995,0.63,0],[0.72,0.99,0],[0.5,1,0],[0.28,0.99,0]];shape=mxgraph.kubernetes.icon;prIcon=pod;labelPosition=center;verticalLabelPosition=bottom;align=center;verticalAlign=top;" vertex="1" parent="pSXNC7oPqVaKM3YzNo9T-8">
          <mxGeometry x="130" y="30" width="50" height="48" as="geometry" />
        </mxCell>
        <mxCell id="pSXNC7oPqVaKM3YzNo9T-16" value="消息接收服务&lt;br&gt;portal" style="html=1;dashed=0;whitespace=wrap;fillColor=#2875E2;strokeColor=#ffffff;points=[[0.005,0.63,0],[0.1,0.2,0],[0.9,0.2,0],[0.5,0,0],[0.995,0.63,0],[0.72,0.99,0],[0.5,1,0],[0.28,0.99,0]];shape=mxgraph.kubernetes.icon;prIcon=pod;labelPosition=center;verticalLabelPosition=bottom;align=center;verticalAlign=top;" vertex="1" parent="pSXNC7oPqVaKM3YzNo9T-8">
          <mxGeometry x="240" y="30" width="50" height="48" as="geometry" />
        </mxCell>
        <mxCell id="pSXNC7oPqVaKM3YzNo9T-17" value="配置管理&lt;br&gt;ETCD" style="html=1;dashed=0;whitespace=wrap;fillColor=#2875E2;strokeColor=#ffffff;points=[[0.005,0.63,0],[0.1,0.2,0],[0.9,0.2,0],[0.5,0,0],[0.995,0.63,0],[0.72,0.99,0],[0.5,1,0],[0.28,0.99,0]];shape=mxgraph.kubernetes.icon;prIcon=etcd;labelPosition=center;verticalLabelPosition=bottom;align=center;verticalAlign=top;" vertex="1" parent="pSXNC7oPqVaKM3YzNo9T-8">
          <mxGeometry x="340" y="30" width="50" height="48" as="geometry" />
        </mxCell>
        <mxCell id="pSXNC7oPqVaKM3YzNo9T-18" value="消息队列&lt;br&gt;MQ" style="points=[[0,0,0],[0.25,0,0],[0.5,0,0],[0.75,0,0],[1,0,0],[0,1,0],[0.25,1,0],[0.5,1,0],[0.75,1,0],[1,1,0],[0,0.25,0],[0,0.5,0],[0,0.75,0],[1,0.25,0],[1,0.5,0],[1,0.75,0]];outlineConnect=0;gradientDirection=north;dashed=0;verticalLabelPosition=bottom;verticalAlign=top;align=center;html=1;fontSize=12;fontStyle=0;aspect=fixed;shape=mxgraph.aws4.resourceIcon;resIcon=mxgraph.aws4.mq;strokeColor=#b85450;fillColor=#f8cecc;" vertex="1" parent="pSXNC7oPqVaKM3YzNo9T-8">
          <mxGeometry x="240" y="140" width="50" height="50" as="geometry" />
        </mxCell>
        <mxCell id="pSXNC7oPqVaKM3YzNo9T-2" value="" style="endArrow=none;dashed=1;html=1;dashPattern=1 3;strokeWidth=2;" edge="1" parent="1">
          <mxGeometry width="50" height="50" relative="1" as="geometry">
            <mxPoint x="-200" y="-920" as="sourcePoint" />
            <mxPoint x="727.272705078125" y="-920" as="targetPoint" />
          </mxGeometry>
        </mxCell>
        <mxCell id="pSXNC7oPqVaKM3YzNo9T-9" value="clos" style="aspect=fixed;pointerEvents=1;shadow=0;dashed=0;html=1;strokeColor=none;labelPosition=center;verticalLabelPosition=bottom;verticalAlign=top;align=center;fillColor=#00188D;shape=mxgraph.mscae.enterprise.management_console;" vertex="1" parent="1">
          <mxGeometry x="-20" y="-1030" width="58.82" height="40" as="geometry" />
        </mxCell>
        <mxCell id="pSXNC7oPqVaKM3YzNo9T-10" value="场地其他系统" style="outlineConnect=0;dashed=0;verticalLabelPosition=bottom;verticalAlign=top;align=center;html=1;shape=mxgraph.aws3.management_console;fillColor=#F58534;gradientColor=none;" vertex="1" parent="1">
          <mxGeometry x="-340" y="-847.5" width="50" height="63" as="geometry" />
        </mxCell>
      </root>
    </mxGraphModel>
  </diagram>
</mxfile>
